<svg xmlns="http://www.w3.org/2000/svg" viewBox="0 0 382.325 382.325"><path d="M182.966 228.544v36h-4c-6.6 0-12 5.4-12 12s5.4 12 12 12h28v-60h-24z" fill="#dd916f"/><g fill="#dd916f"><path d="M207.06 234.41l19.97-13.314 33.282 49.926-19.97 13.313z"/><path d="M246.987 251.039l-23.297 15.532c-5.492 3.661-6.989 11.149-3.328 16.641 3.661 5.492 11.149 6.989 16.641 3.328l23.297-15.532-13.313-19.969z"/></g><path fill="#d87d60" d="M191.163 228.544v60h15.803v-60zM203.078 124.128c-9.166 0-16.59 2.153-22.696 5.62-1.335-5.063-1.692-9.868-1.692-12.65 0-9.402 17.057-23.317 23.007-23.317 5.949 0 23.006 13.915 23.006 23.317 0 2.789-.359 7.609-1.701 12.684-5.569-3.46-11.856-5.654-19.924-5.654z"/><path d="M201.697 93.781c-2.354 0-6.447 2.183-10.535 5.398v26.329c3.613-.882 7.562-1.381 11.916-1.381 8.068 0 14.355 2.194 19.924 5.654 1.343-5.075 1.701-9.896 1.701-12.685.001-9.4-17.056-23.315-23.006-23.315z" fill="#d46c5b"/><path d="M238.713 136.213c-6.482-6.482-13.253-10.208-20.022-12.075 2.636-4.524 5.781-8.174 7.749-10.141 6.648-6.648 28.549-4.426 32.756-.219 4.207 4.207 6.429 26.107-.219 32.755-1.972 1.972-5.634 5.127-10.172 7.766-1.494-6.385-4.388-12.382-10.092-18.086z" fill="#d46c5b"/><path d="M264.213 166.213c-6.482-6.482-13.253-10.208-20.022-12.075 2.636-4.524 5.781-8.174 7.749-10.141 6.648-6.648 28.549-4.426 32.756-.219 4.207 4.207 6.429 26.107-.219 32.755-1.972 1.972-5.634 5.127-10.172 7.766-1.493-6.385-4.387-12.382-10.092-18.086z" fill="#d46c5b"/><path d="M290.847 185.83c-3.935-3.936-8.047-6.198-12.157-7.331 1.6-2.747 3.51-4.963 4.705-6.158 4.036-4.036 17.334-2.687 19.889-.133 2.554 2.554 3.903 15.852-.133 19.888-1.197 1.197-3.421 3.113-6.176 4.715-.907-3.876-2.664-7.517-6.128-10.981z" fill="#d46c5b"/><path d="M165.12 134.259c-6.482 6.482-10.208 13.253-12.075 20.023-4.524-2.636-8.174-5.781-10.141-7.749-6.648-6.648-4.426-28.549-.219-32.756 4.207-4.207 26.107-6.429 32.755.219 1.972 1.972 5.127 5.634 7.766 10.172-6.384 1.492-12.381 4.386-18.086 10.091z" fill="#d87d60"/><path d="M134.156 153.693c-5.209 5.209-8.203 10.65-9.703 16.09-3.635-2.118-6.569-4.646-8.15-6.227-5.342-5.342-3.557-22.941-.176-26.322 3.381-3.381 20.98-5.166 26.322.176 1.585 1.585 4.12 4.527 6.241 8.174-5.131 1.199-9.95 3.524-14.534 8.109z" fill="#d87d60"/><path d="M128.159 212.031c-.909 1.035-8.937 10.623-11.007 28.292-1.939 16.551 1.542 23.371 4.805 26.177a8.447 8.447 0 0 0 11.913-.895c2.664-3.097.445-6.75.278-10.679-1.15-27.024 15.928-25.551 16.153-25.82l-9.444-5.929-12.698-11.146z" fill="#dd916f"/><path d="M55.199 115.9c1.58 16.485 11.641 2.603 34.471 20s31.966 16.843 39.02 13.882c37.37-15.686 43.5-38 88.632-30 44.701 7.924 46.089 37.5 57.017 50 24.166 27.642 84.576 5.667 104.252 40.149 12.588 22.061-10.818 62.436-9.223 49.851 5.068-40-4.947-53.314-38.012-50s-57.6 21.657-85.526 33.125c-42.784 17.569-93.466-2.431-110.214-16.569-28.501-24.059-65.46-62.39-80.417-60.733-14.958 1.657-28.713 5.4-37.438 4.177-7.803-1.094-26.441-8.319-13.058-20.745S53.238 95.449 55.199 115.9z" fill="#dd916f"/><path d="M111.653 189.782c-1.174.773-11.663 8.04-18.474 24.867-6.379 15.763-4.795 23.415-2.343 27.057a8.62 8.62 0 0 0 11.964 2.337c3.458-2.328 2.262-6.522 3.158-10.434 6.168-26.904 22.576-20.841 22.87-21.045l-7.692-8.386-9.483-14.396z" fill="#dd916f"/><circle cx="193.104" cy="162.159" r="10" fill="#ffe477"/><path d="M378.591 209.931c-19.676-34.482-80.086-12.507-104.252-40.149-10.928-12.5-12.316-42.076-57.017-50-10.553-1.871-18.973-2.083-26.159-1.111v129.743c17.572 2.602 36.805 1.828 54.668-5.507 27.926-11.468 52.462-29.811 85.526-33.125 33.064-3.314 43.08 10 38.012 50-1.596 12.586 21.81-27.79 9.222-49.851z" fill="#d87d60"/><circle cx="225.999" cy="149.199" r="15" fill="#f6e277"/><circle cx="248.688" cy="179.78" r="10" fill="#f6e277"/><path d="M44.69 137.782c-3.309 0-6 2.691-6 6s2.691 6 6 6 6-2.691 6-6-2.691-6-6-6z"/><path d="M202.833 159.846c-1.248-5.249-6.423-8.527-11.671-7.484v19.6c1.367.272 2.81.27 4.255-.073 5.374-1.278 8.694-6.67 7.416-12.043z" fill="#f6e277"/></svg>