<svg xmlns="http://www.w3.org/2000/svg" viewBox="0 0 351.54 351.54"><path d="M147.521 93.521c-2.211 29.218-3.043 64.7 1.849 98.976 8.199-1.344 21.087-9.977 19.887-18.082-.877-5.925-9.043-9.937-16.589-11.245 7.987-2.348 17.672-9.099 17.059-16.076-.581-6.611-10.235-11.409-18.286-12.676 8.026-2.049 17.736-8.236 17.469-15.132-.249-6.423-9.082-11.564-16.887-13.391 7.967-2.125 17.438-8.244 17.174-15.055-.249-6.422-9.081-11.564-16.886-13.391 7.967-2.125 17.436-8.243 17.172-15.056-.304-7.826-13.348-13.748-21.752-14.088 1.555 14.471.97 29.622-.21 45.216z" fill="#d570a7"/><path d="M241.178 111.387l-1.3 1.18c16.69 41.35 16.23 81.44-14.29 97.25-4.34 2.25-9.28 4.01-14.88 5.21a77.5 77.5 0 0 1-7.11 1.18c-3.99.49-8.26.72-12.82.68h-.86c-.2 0-.41-.01-.62-.01-6.63-.13-12.21-1.23-16.89-3.14a32.11 32.11 0 0 1-5.32-2.75c-5.52-3.55-9.41-8.54-12.06-14.55-12.15-27.49 1.5-76.24 3.23-105.16C160.89 47.151 140.961 2.38 114.839.038c-5.015-.45-15.451 3.213-19.071 1.589-.929-.417-1.924-.698-2.942-.723-4.382-.109-8.088 3.233-8.593 7.457-.185 1.55.19 3.113.901 4.503 1.63 3.187 3.485 2.497 1.453 5.002-11.569 14.26-18.329 13.199-18.329 23.41 0 19.63 1.09 30.52 21.34 30.52 10.1 0 26.94-3.86 26.94 16.84 0 21.25-23.28 74.64-37.23 147.82-4.14 21.74 4.95 63.82 48.95 74.82 74.24 18.56 100.5-2.82 110-10 29.35-22.18 45.02-63.67 45.02-100.41.001-56.879-42.1-89.479-42.1-89.479z" fill="#da88b4"/><path d="M136.938 351.54h-4.063c-7.293 0-13.205-5.912-13.205-13.205v-41.231h30.473v41.231c0 7.293-5.912 13.205-13.205 13.205z" fill="#da88b4"/><path d="M193.776 351.54h-4.063c-7.293 0-13.205-5.912-13.205-13.205v-41.231h30.473v41.231c0 7.293-5.912 13.205-13.205 13.205zM224.249 351.54h-4.063c-7.293 0-13.205-5.912-13.205-13.205v-41.231h30.473v41.231c0 7.293-5.912 13.205-13.205 13.205z" fill="#d570a7"/><path d="M90.402 338.251l-3.78-1.49c-6.785-2.674-10.117-10.342-7.443-17.127l15.119-38.359 28.35 11.174-15.119 38.359c-2.674 6.785-10.342 10.117-17.127 7.443z" fill="#da88b4"/><path d="M241.175 111.389l-1.293 1.182c21.739 53.857 14.387 105.556-50.586 104.311-5.115-.098-9.593-.787-13.527-1.969v103.649c38.904 1.389 55.382-11.919 62.487-17.288 29.357-22.179 45.025-63.672 45.025-100.412 0-56.871-42.106-89.473-42.106-89.473z" fill="#d570a7"/><path d="M190.779 216.887c.02.51.02 1.02 0 1.52-.08 6.77-1.65 11.97-4.92 13.03-4.35 1.4-10.56-4.93-15.49-13.74a70.763 70.763 0 0 1-3.28-6.71 32.11 32.11 0 0 0 5.32 2.75c4.68 1.91 10.26 3.01 16.89 3.14.21 0 .42.01.62.01h.86z" fill="#ffe477"/><path d="M210.769 218.777c-.13 6.59-1.7 11.62-4.91 12.66-4.23 1.36-10.22-4.59-15.08-13.03-.29-.5-.58-1.01-.86-1.52h.86c4.56.04 8.83-.19 12.82-.68a77.5 77.5 0 0 0 7.11-1.18c.08 1.29.1 2.54.06 3.75z" fill="#f6d563"/><path d="M226.619 217.817c-2.03 3.18-8.39 3.13-15.85.96-2.31-.66-4.74-1.53-7.17-2.57a77.5 77.5 0 0 0 7.11-1.18c5.6-1.2 10.54-2.96 14.88-5.21 1.73 3.23 2.25 6.08 1.03 8z" fill="#f6d563"/><path d="M172.409 213.737c-.65 1.39-1.33 2.72-2.04 3.96-3.64 6.45-7.91 10.68-11.49 9.9-5.37-1.19-5.63-17.64-3.85-31.16 2.65 6.01 6.54 11 12.06 14.55a32.07 32.07 0 0 0 5.32 2.75z" fill="#ffe477"/><path d="M189.918 216.887c-.2 0-.41-.01-.62-.01-5.114-.1-9.597-.783-13.53-1.964v10.752c3.573 4.264 7.232 6.692 10.09 5.773 3.27-1.06 4.84-6.26 4.92-13.03.02-.5.02-1.01 0-1.52h-.86z" fill="#f6d563"/><circle cx="105.769" cy="31.627" r="10" fill="#272525"/></svg>