<svg xmlns="http://www.w3.org/2000/svg" viewBox="0 0 359.158 359.158"><path d="M51.267 249.148c-5.301-5.591-5.066-14.421.525-19.722l24.695-23.415a1.86 1.86 0 0 1 2.63.07l16.638 17.547a1.86 1.86 0 0 1-.07 2.63L70.99 249.673c-5.592 5.301-14.422 5.066-19.723-.525zM64.16 290.294c-5.301-5.591-5.066-14.421.525-19.722l24.695-23.415a1.86 1.86 0 0 1 2.63.07l16.638 17.547a1.86 1.86 0 0 1-.07 2.63l-24.695 23.415c-5.592 5.301-14.422 5.066-19.723-.525zM146.177 334.646h-3.553c-6.378 0-11.548-5.17-11.548-11.548v-75.59h26.65v75.59c0 6.378-5.171 11.548-11.549 11.548z" fill="#f6e277"/><path d="M115.771 325.365v-2.856a9.28 9.28 0 0 1 9.281-9.281h18.841c5.6 0 10.139 4.54 10.139 10.139v1.14c0 5.6-4.54 10.139-10.139 10.139h-18.841a9.28 9.28 0 0 1-9.281-9.281zM182.508 287.039v26.189h-6.023a9.28 9.28 0 0 0-9.281 9.281v2.856a9.28 9.28 0 0 0 9.281 9.281H197.61c6.378 0 11.548-5.17 11.548-11.548v-36.059h-26.65z" fill="#f6e277"/><path d="M344.113 297.974c-28.185 4.383-62.059 38.48-85.229-52.116-32.068-125.387-130.733-59.623-148.883-84.688-39.844-55.024-16.997-90.317-3.962-99.101 16.37-11.032 4.785-39.756 3.118-37.423-7.322 10.251-18.739 22.823-32.187 24.295C-1.713 57.552.488 86.066.001 113.784c-.253 14.427 32.229 5.637 52.151 9.645 5.133 1.033-18.72 65.446 50.713 144.651 6.686 7.627 42.896 36.894 84.754 24.663 13.996-4.09 41.539-8.097 41.539-8.097 3.751.938 5.678 10.668 7.431 14.293 27.664 57.226 98.147 12.162 113.15 10.286 15.003-1.874 11.315-13.886-5.626-11.251z" fill="#f6e277"/><path d="M116.068 184.642s-25.315-58.026 2.617-68.186c22.759-8.279 41.381 2.968 60.472 8.19 3.008.823-11.65 3.823-30 16.648-24.557 17.163.664 53.352.664 53.352l-33.753-10.004z" fill="#dd916f"/><circle cx="39.157" cy="75.398" r="9.249"/><path d="M182.508 287.039v26.189h-3.35v21.419H197.609c6.378 0 11.548-5.17 11.548-11.548V287.04h-26.649z" fill="#f3d363"/><path d="M343.692 297.974c-28.185 4.383-62.059 38.48-85.229-52.116-15.972-62.454-48.467-77.483-79.305-79.936v128.686a73.478 73.478 0 0 0 8.04-1.866c13.996-4.09 41.539-8.097 41.539-8.097 3.751.938 5.678 10.667 7.431 14.293 27.664 57.226 98.147 12.162 113.15 10.286 15.003-1.873 11.315-13.885-5.626-11.25z" fill="#f3d363"/><circle cx="184.158" cy="259.646" r="10" fill="#dd916f"/><circle cx="149.158" cy="264.646" r="15" fill="#dd916f"/><circle cx="134.158" cy="229.646" r="10" fill="#dd916f"/><path d="M184.158 249.646a9.937 9.937 0 0 0-5 1.349v17.303a9.937 9.937 0 0 0 5 1.349c5.523 0 10-4.477 10-10s-4.477-10.001-10-10.001z" fill="#d98069"/></svg>