<svg xmlns="http://www.w3.org/2000/svg" viewBox="0 0 380.555 380.555"><path fill="#d87d60" d="M172.5 157.721l-6.572-30.679 26.723-20.151 27.085 22.885-6.935 27.945z"/><path fill="#d46c5b" d="M192.651 106.891v50.83h20.15l6.935-27.945z"/><path fill="#d46c5b" d="M206.122 156.873l8.106-32.021 32.959-2.186 12.264 30.67-25.379 21.141z"/><path fill="#d46c5b" d="M241.324 181.393l5.726-32.531 32.708-4.607 12.207 42.636-21.471 10z"/><path fill="#d87d60" d="M101.324 181.393l5.726-32.531 32.708-4.607 12.207 42.636-21.471 10z"/><path fill="#d87d60" d="M182.812 159.533l-8.427-31.938-32.979-1.855-11.955 40.15 25.59 11.527zM200.379 272.724l-2.659-1.112c-4.773-1.997-7.024-7.485-5.027-12.258l11.289-51.964 19.945 8.344-11.289 51.964a9.37 9.37 0 0 1-12.259 5.026z"/><path d="M235.987 273.664h-2.883a9.368 9.368 0 0 1-9.368-9.368V202.97h21.62v61.325c-.001 5.175-4.195 9.369-9.369 9.369z" fill="#d87d60"/><path d="M116.59 272.724l-2.659-1.112c-4.773-1.997-7.024-7.485-5.027-12.258l11.289-51.964 19.945 8.344-11.289 51.964c-1.998 4.772-7.486 7.023-12.259 5.026z" fill="#dd916f"/><path d="M152.197 273.664h-2.883a9.368 9.368 0 0 1-9.368-9.368v-54.23h21.62v54.23c0 5.174-4.195 9.368-9.369 9.368z" fill="#dd916f"/><path d="M378.653 183.664s-15.598 29.5-70.326 13.554c-7.321-2.133-60.772-60.326-119.48-60.326-40.292 0-74.419 25.326-88.292 26.773-27.044 2.821-41.685-8.722-47.544-14.308-2.009-7.076-8.68-32.465-21.047-32.465-13.807 0-39.21 27.72-30 40 6 8 12.602 10 26.409 10 1.043 0 21.327 3.195 25.034 5.385 3.708 2.19 25.614 19.043 31.512 28.31s10.544 11.712 15.169 14.491c41.466 24.92 74.133 43.586 149.26 4.214 0 0 .504-2.357 8.088 1.524 0 0 29.55 9.516 72.357 3.195 54.61-8.064 53.241-33.778 48.86-40.347z" fill="#dd916f"/><path d="M378.653 183.664s-15.598 29.5-70.326 13.554c-7.192-2.095-58.892-58.276-116.363-60.267v103.475c16.245-2.778 34.914-9.358 57.384-21.134 0 0 2.949-.9 8.088 1.524 0 0 29.55 9.516 72.357 3.195 54.61-8.064 53.241-33.778 48.86-40.347z" fill="#d87d60"/><path d="M25.965 140.891c-3.309 0-6 2.691-6 6s2.691 6 6 6 6-2.691 6-6-2.692-6-6-6z"/><circle cx="231.965" cy="176.891" r="10" fill="#f3d363"/><circle cx="171.965" cy="186.891" r="10" fill="#f6e277"/><circle cx="211.965" cy="206.891" r="10" fill="#f3d363"/><circle cx="196.965" cy="171.891" r="5" fill="#f3d363"/><circle cx="176.965" cy="211.891" r="5" fill="#f6e277"/></svg>