<svg xmlns="http://www.w3.org/2000/svg" viewBox="0 0 378.683 378.683"><path fill="#da7d60" d="M167.023 134.593l-7.28-33.98 29.598-22.319 30 25.347-7.681 30.952z"/><path fill="#d66c5b" d="M189.341 78.294v56.299h22.319l7.681-30.952z"/><path fill="#d66c5b" d="M206.504 136.907l8.978-35.466 36.505-2.422 13.584 33.97-28.11 23.417z"/><path fill="#d66c5b" d="M243.252 164.066l6.342-36.032 36.228-5.103 13.519 40.71-23.78 17.59z"/><path fill="#da7d60" d="M178.445 136.6l-9.334-35.374-36.528-2.055-13.242 44.47 28.344 12.768z"/><path d="M213.673 299.017l-3.883-1.624c-6.969-2.915-10.255-10.929-7.34-17.898l16.483-49.402 29.121 12.182-16.483 49.402c-2.916 6.969-10.929 10.255-17.898 7.34z" fill="#db8269"/><path d="M265.663 300.389h-4.209c-7.555 0-13.679-6.124-13.679-13.679v-63.069h31.566v63.069c0 7.554-6.124 13.679-13.678 13.679z" fill="#db8269"/><path d="M115.001 299.017l-3.883-1.624c-6.969-2.915-10.255-10.929-7.34-17.898l16.483-49.402 29.121 12.182-16.483 49.402c-2.916 6.969-10.929 10.255-17.898 7.34z" fill="#df936f"/><path d="M166.991 300.389h-4.209c-7.555 0-13.679-6.124-13.679-13.679V234h31.566v52.71c0 7.554-6.124 13.679-13.678 13.679z" fill="#df936f"/><path d="M92.709 224.892s-33.911 31.224-44.855 29.384c-33.513-5.635-29.312-29.384-29.312-29.384L0 206.35s29.572 5.501 37.084-18.542c11.964-38.291-17.357-64.792-17.357-64.792s38.909-23.908 72.982 9.166c14.143 13.728 38.938-18.542 92.709-18.542s119.548 57.866 148.335 55.626c44.123-3.434 38.652-46.673 42.248-46.25 3.985.469 7.188 37.19-18.751 56.254-47.862 35.175-54.504 23.596-65.63 37.503s-20.314 49.691-84.381 46.878c-87.779-3.854-83.01-34.124-95.989-38.759s-18.541 0-18.541 0z" fill="#df936f"/><circle cx="60.092" cy="192.89" r="9.249"/><path d="M376.002 123.016c-3.596-.423 1.865 49.813-42.248 46.25-29.412-2.375-91.403-52.853-144.412-55.516v148.639c5.499.549 11.442.979 17.899 1.262 64.067 2.813 73.256-32.972 84.381-46.878 11.125-13.906 17.768-2.327 65.63-37.502 25.938-19.065 22.735-55.786 18.75-56.255z" fill="#db8269"/><circle cx="159.341" cy="159.341" r="10" fill="#ffe477"/><circle cx="184.341" cy="134.341" r="15" fill="#ffe477"/><circle cx="209.341" cy="159.341" r="10" fill="#f6d563"/><path d="M189.341 120.213v28.256c5.822-2.061 10-7.6 10-14.128 0-6.528-4.178-12.067-10-14.128z" fill="#f6d563"/></svg>