<svg xmlns="http://www.w3.org/2000/svg" viewBox="0 0 329.923 329.923"><path d="M301.807 163.739c-42.178-72.306-110.667-66.282-120.509-80.34-22.45-32.068-5.117-55.401-55.45-79.068C83.572-15.547 36.688 39.213 20.62 43.23 9.037 46.126 5.135 73.647 17.912 76.431c2.603.567 36.074 0 36.074 0 5.523 0 5.34 6.492 0 7.9-5.932 1.564-27.888 13.25-23.366 24.116 2.488 5.979 13.739 8.217 25.228 5.884 17.324-3.518 50-10 50-10s9.239 31.351 14.198 44.204L105.2 192.883c-2.888 6.484-1.915 26.153 6.539 27.04 11.905 1.249 22.227-6.667 18.227-30-.941-5.488 6.169-13.285 14.02-13.492 19.23-.508 24.221 11.569 13.657 38.389-6.719 17.059 5.193 32.822 16.343 41.611l-18.381 38.666c-6.483-2.015-13.619-4.842-21.619-8.666-44.828-21.43-48-23-73.197-42.353-14.424-11.079 11.723 27.037 53.197 52.353 30.905 18.865 66.5 45 147.652 27.986 43.513-9.123 82.347-88.373 40.169-160.678zm-80.339 120.509c-11.484 6.699-21.593 12.423-33.931 14.245l25.001-21.991c10.85 2.007 16.701 3.213 8.93 7.746z" fill="#ffe477"/><path d="M301.807 163.739c-42.178-72.306-110.667-66.282-120.509-80.34-17.631-25.184-10.732-44.98-31.333-63.782v157.138c14.172 2.104 17.043 14.286 7.677 38.064-6.719 17.059 5.193 32.822 16.343 41.611l-18.381 38.666a129.653 129.653 0 0 1-5.64-1.906v23.579c25.47 11.542 58.958 18.699 111.672 7.647 43.515-9.122 82.349-88.372 40.171-160.677zm-80.339 120.508c-11.484 6.699-21.593 12.423-33.931 14.245l25.001-21.991c10.85 2.008 16.701 3.214 8.93 7.746z" fill="#f6d563"/><circle cx="224.655" cy="148.145" r="10" fill="#df936f"/><circle cx="259.966" cy="149.923" r="15" fill="#df936f"/><circle cx="284.966" cy="204.923" r="15" fill="#df936f"/><circle cx="249.966" cy="189.923" r="10" fill="#df936f"/><path d="M144.809 313.656l-20.944-10.472c-5.76-2.88-8.116-9.949-5.236-15.708 2.88-5.76 9.949-8.116 15.708-5.236l20.944 10.472c5.76 2.88 8.116 9.949 5.236 15.708-2.879 5.759-9.948 8.116-15.708 5.236z" fill="#ffe477"/><circle cx="65.856" cy="39.293" r="10" fill="#272525"/></svg>